<svg width="795" height="227" viewBox="0 0 795 227" fill="none" xmlns="http://www.w3.org/2000/svg">
<path d="M15.9804 181C15.9804 181 15.9804 180.247 15.9804 178.741V173.471V168.231V165.941H18.2392H23.5098H28.749H31.0392C31.0392 165.941 31.0392 166.705 31.0392 168.231V165.941H33.2981H38.5687H43.8079H46.0981C46.0981 165.941 46.0981 166.705 46.0981 168.231V173.471V178.741V181C46.0981 181 45.3347 181 43.8079 181H38.5687H33.2981H31.0392C31.0392 181 31.0392 180.247 31.0392 178.741V181C31.0392 181 30.2758 181 28.749 181H23.5098H18.2392H15.9804ZM0.921594 165.941C0.921594 165.941 0.921594 165.188 0.921594 163.682V158.412V153.173V150.882C0.921594 150.882 0.921594 150.129 0.921594 148.624V143.353V138.114V135.824H3.18042H8.45101H13.6902H15.9804C15.9804 135.824 15.9804 136.587 15.9804 138.114V143.353V148.624V150.882C15.9804 150.882 15.217 150.882 13.6902 150.882H15.9804C15.9804 150.882 15.9804 151.646 15.9804 153.173V158.412V163.682V165.941C15.9804 165.941 15.217 165.941 13.6902 165.941H8.45101H3.18042H0.921594ZM15.9804 135.824C15.9804 135.824 15.9804 135.071 15.9804 133.565V128.294V123.055V120.765H18.2392H23.5098H28.749H31.0392C31.0392 120.765 31.0392 121.528 31.0392 123.055V120.765H33.2981H38.5687H43.8079H46.0981C46.0981 120.765 46.0981 121.528 46.0981 123.055V120.765H48.3569H53.6275H58.8667H61.1569C61.1569 120.765 61.1569 121.528 61.1569 123.055V120.765C61.1569 120.765 61.1569 120.012 61.1569 118.506V113.235V107.996V105.706C61.1569 105.706 61.1569 104.953 61.1569 103.447V98.1765V92.9372V90.6471C61.1569 90.6471 61.1569 89.8941 61.1569 88.3882V83.1176V77.8784V75.5882H63.4157H68.6863H73.9255H76.2157C76.2157 75.5882 76.2157 76.3516 76.2157 77.8784V83.1176V88.3882V90.6471C76.2157 90.6471 75.4523 90.6471 73.9255 90.6471H76.2157C76.2157 90.6471 76.2157 91.4105 76.2157 92.9372V98.1765V103.447V105.706C76.2157 105.706 75.4523 105.706 73.9255 105.706H76.2157C76.2157 105.706 76.2157 106.469 76.2157 107.996V113.235V118.506V120.765C76.2157 120.765 75.4523 120.765 73.9255 120.765H76.2157C76.2157 120.765 76.2157 121.528 76.2157 123.055V128.294V133.565V135.824C76.2157 135.824 75.4523 135.824 73.9255 135.824H76.2157C76.2157 135.824 76.2157 136.587 76.2157 138.114V143.353V148.624V150.882C76.2157 150.882 75.4523 150.882 73.9255 150.882H76.2157C76.2157 150.882 76.2157 151.646 76.2157 153.173V158.412V163.682V165.941C76.2157 165.941 75.4523 165.941 73.9255 165.941H76.2157C76.2157 165.941 76.2157 166.705 76.2157 168.231V173.471V178.741V181C76.2157 181 75.4523 181 73.9255 181H68.6863H63.4157H61.1569C61.1569 181 61.1569 180.247 61.1569 178.741V173.471V168.231V165.941C61.1569 165.941 61.1569 165.188 61.1569 163.682V165.941C61.1569 165.941 60.3935 165.941 58.8667 165.941H53.6275H48.3569H46.0981C46.0981 165.941 46.0981 165.188 46.0981 163.682V158.412V153.173V150.882H48.3569H53.6275H58.8667H61.1569C61.1569 150.882 61.1569 151.646 61.1569 153.173V150.882C61.1569 150.882 61.1569 150.129 61.1569 148.624V143.353V138.114V135.824C61.1569 135.824 61.1569 135.071 61.1569 133.565V135.824C61.1569 135.824 60.3935 135.824 58.8667 135.824H53.6275H48.3569H46.0981C46.0981 135.824 46.0981 135.071 46.0981 133.565V135.824C46.0981 135.824 45.3347 135.824 43.8079 135.824H38.5687H33.2981H31.0392C31.0392 135.824 31.0392 135.071 31.0392 133.565V135.824C31.0392 135.824 30.2758 135.824 28.749 135.824H23.5098H18.2392H15.9804ZM0.921594 90.6471C0.921594 90.6471 0.921594 89.8941 0.921594 88.3882V83.1176V77.8784V75.5882H3.18042H8.45101H13.6902H15.9804C15.9804 75.5882 15.9804 76.3516 15.9804 77.8784V83.1176V88.3882V90.6471C15.9804 90.6471 15.217 90.6471 13.6902 90.6471H8.45101H3.18042H0.921594ZM15.9804 75.5882C15.9804 75.5882 15.9804 74.8353 15.9804 73.3294V68.0588V62.8196V60.5294H18.2392H23.5098H28.749H31.0392C31.0392 60.5294 31.0392 61.2928 31.0392 62.8196V60.5294H33.2981H38.5687H43.8079H46.0981C46.0981 60.5294 46.0981 61.2928 46.0981 62.8196V60.5294H48.3569H53.6275H58.8667H61.1569C61.1569 60.5294 61.1569 61.2928 61.1569 62.8196V68.0588V73.3294V75.5882C61.1569 75.5882 60.3935 75.5882 58.8667 75.5882H53.6275H48.3569H46.0981C46.0981 75.5882 46.0981 74.8353 46.0981 73.3294V75.5882C46.0981 75.5882 45.3347 75.5882 43.8079 75.5882H38.5687H33.2981H31.0392C31.0392 75.5882 31.0392 74.8353 31.0392 73.3294V75.5882C31.0392 75.5882 30.2758 75.5882 28.749 75.5882H23.5098H18.2392H15.9804ZM85.971 181C85.971 181 85.971 180.247 85.971 178.741V173.471V168.231V165.941C85.971 165.941 85.971 165.188 85.971 163.682V158.412V153.173V150.882C85.971 150.882 85.971 150.129 85.971 148.624V143.353V138.114V135.824C85.971 135.824 85.971 135.071 85.971 133.565V128.294V123.055V120.765C85.971 120.765 85.971 120.012 85.971 118.506V113.235V107.996V105.706C85.971 105.706 85.971 104.953 85.971 103.447V98.1765V92.9372V90.6471C85.971 90.6471 85.971 89.8941 85.971 88.3882V83.1176V77.8784V75.5882C85.971 75.5882 85.971 74.8353 85.971 73.3294V68.0588V62.8196V60.5294C85.971 60.5294 85.971 59.7765 85.971 58.2706V53V47.7608V45.4706C85.971 45.4706 85.971 44.7176 85.971 43.2118V37.9412V32.702V30.4118C85.971 30.4118 85.971 29.6588 85.971 28.1529V22.8823V17.6431V15.3529C85.971 15.3529 85.971 14.6 85.971 13.0941V7.82352V2.5843V0.294113H88.2298H93.5004H98.7396H101.03C101.03 0.294113 101.03 1.05751 101.03 2.5843V7.82352V13.0941V15.3529C101.03 15.3529 100.266 15.3529 98.7396 15.3529H101.03C101.03 15.3529 101.03 16.1163 101.03 17.6431V22.8823V28.1529V30.4118C101.03 30.4118 100.266 30.4118 98.7396 30.4118H101.03C101.03 30.4118 101.03 31.1752 101.03 32.702V37.9412V43.2118V45.4706C101.03 45.4706 100.266 45.4706 98.7396 45.4706H101.03C101.03 45.4706 101.03 46.234 101.03 47.7608V53V58.2706V60.5294C101.03 60.5294 100.266 60.5294 98.7396 60.5294H101.03C101.03 60.5294 101.03 61.2928 101.03 62.8196V68.0588V73.3294V75.5882C101.03 75.5882 100.266 75.5882 98.7396 75.5882H101.03C101.03 75.5882 101.03 76.3516 101.03 77.8784V83.1176V88.3882V90.6471C101.03 90.6471 100.266 90.6471 98.7396 90.6471H101.03C101.03 90.6471 101.03 91.4105 101.03 92.9372V98.1765V103.447V105.706C101.03 105.706 100.266 105.706 98.7396 105.706H101.03C101.03 105.706 101.03 106.469 101.03 107.996V113.235V118.506V120.765C101.03 120.765 100.266 120.765 98.7396 120.765H101.03C101.03 120.765 101.03 121.528 101.03 123.055V128.294V133.565V135.824C101.03 135.824 100.266 135.824 98.7396 135.824H101.03C101.03 135.824 101.03 136.587 101.03 138.114V143.353V148.624V150.882C101.03 150.882 100.266 150.882 98.7396 150.882H101.03C101.03 150.882 101.03 151.646 101.03 153.173V158.412V163.682V165.941C101.03 165.941 100.266 165.941 98.7396 165.941H101.03C101.03 165.941 101.03 166.705 101.03 168.231V173.471V178.741V181C101.03 181 100.266 181 98.7396 181H93.5004H88.2298H85.971ZM110.741 226.176C110.741 226.176 110.741 225.413 110.741 223.886V218.647V213.376V211.118H113H118.27H123.51H125.8C125.8 211.118 125.8 211.871 125.8 213.376V211.118H128.059H133.329H138.568H140.859C140.859 211.118 140.859 211.871 140.859 213.376V211.118H143.117H148.388H153.627H155.917C155.917 211.118 155.917 211.871 155.917 213.376V211.118H158.176H163.447H168.686H170.976C170.976 211.118 170.976 211.871 170.976 213.376V218.647V223.886V226.176C170.976 226.176 170.213 226.176 168.686 226.176H163.447H158.176H155.917C155.917 226.176 155.917 225.413 155.917 223.886V226.176C155.917 226.176 155.154 226.176 153.627 226.176H148.388H143.117H140.859C140.859 226.176 140.859 225.413 140.859 223.886V226.176C140.859 226.176 140.095 226.176 138.568 226.176H133.329H128.059H125.8C125.8 226.176 125.8 225.413 125.8 223.886V226.176C125.8 226.176 125.036 226.176 123.51 226.176H118.27H113H110.741ZM170.976 211.118C170.976 211.118 170.976 210.354 170.976 208.827V203.588V198.318V196.059C170.976 196.059 170.976 195.295 170.976 193.769V188.529V183.259V181H173.235H178.506H183.745H186.035C186.035 181 186.035 181.753 186.035 183.259V188.529V193.769V196.059C186.035 196.059 185.272 196.059 183.745 196.059H186.035C186.035 196.059 186.035 196.812 186.035 198.318V203.588V208.827V211.118C186.035 211.118 185.272 211.118 183.745 211.118H178.506H173.235H170.976ZM125.8 181C125.8 181 125.8 180.247 125.8 178.741V173.471V168.231V165.941C125.8 165.941 125.8 165.188 125.8 163.682V158.412V153.173V150.882C125.8 150.882 125.8 150.129 125.8 148.624V143.353V138.114V135.824H128.059H133.329H138.568H140.859C140.859 135.824 140.859 136.587 140.859 138.114V135.824H143.117H148.388H153.627H155.917C155.917 135.824 155.917 136.587 155.917 138.114V135.824H158.176H163.447H168.686H170.976C170.976 135.824 170.976 136.587 170.976 138.114V143.353V148.624V150.882C170.976 150.882 170.213 150.882 168.686 150.882H163.447H158.176H155.917C155.917 150.882 155.917 150.129 155.917 148.624V150.882C155.917 150.882 155.154 150.882 153.627 150.882H148.388H143.117H140.859C140.859 150.882 140.859 150.129 140.859 148.624V150.882C140.859 150.882 140.095 150.882 138.568 150.882H140.859C140.859 150.882 140.859 151.646 140.859 153.173V158.412V163.682V165.941C140.859 165.941 140.095 165.941 138.568 165.941H140.859C140.859 165.941 140.859 166.705 140.859 168.231V165.941H143.117H148.388H153.627H155.917C155.917 165.941 155.917 166.705 155.917 168.231V165.941H158.176H163.447H168.686H170.976C170.976 165.941 170.976 166.705 170.976 168.231V173.471V178.741V181C170.976 181 170.213 181 168.686 181H163.447H158.176H155.917C155.917 181 155.917 180.247 155.917 178.741V181C155.917 181 155.154 181 153.627 181H148.388H143.117H140.859C140.859 181 140.859 180.247 140.859 178.741V181C140.859 181 140.095 181 138.568 181H133.329H128.059H125.8ZM110.741 135.824C110.741 135.824 110.741 135.071 110.741 133.565V128.294V123.055V120.765C110.741 120.765 110.741 120.012 110.741 118.506V113.235V107.996V105.706C110.741 105.706 110.741 104.953 110.741 103.447V98.1765V92.9372V90.6471C110.741 90.6471 110.741 89.8941 110.741 88.3882V83.1176V77.8784V75.5882H113H118.27H123.51H125.8C125.8 75.5882 125.8 76.3516 125.8 77.8784V83.1176V88.3882V90.6471C125.8 90.6471 125.036 90.6471 123.51 90.6471H125.8C125.8 90.6471 125.8 91.4105 125.8 92.9372V98.1765V103.447V105.706C125.8 105.706 125.036 105.706 123.51 105.706H125.8C125.8 105.706 125.8 106.469 125.8 107.996V113.235V118.506V120.765C125.8 120.765 125.036 120.765 123.51 120.765H125.8C125.8 120.765 125.8 121.528 125.8 123.055V128.294V133.565V135.824C125.8 135.824 125.036 135.824 123.51 135.824H118.27H113H110.741ZM170.976 135.824C170.976 135.824 170.976 135.071 170.976 133.565V128.294V123.055V120.765C170.976 120.765 170.976 120.012 170.976 118.506V113.235V107.996V105.706C170.976 105.706 170.976 104.953 170.976 103.447V98.1765V92.9372V90.6471C170.976 90.6471 170.976 89.8941 170.976 88.3882V83.1176V77.8784V75.5882H173.235H178.506H183.745H186.035C186.035 75.5882 186.035 76.3516 186.035 77.8784V83.1176V88.3882V90.6471C186.035 90.6471 185.272 90.6471 183.745 90.6471H186.035C186.035 90.6471 186.035 91.4105 186.035 92.9372V98.1765V103.447V105.706C186.035 105.706 185.272 105.706 183.745 105.706H186.035C186.035 105.706 186.035 106.469 186.035 107.996V113.235V118.506V120.765C186.035 120.765 185.272 120.765 183.745 120.765H186.035C186.035 120.765 186.035 121.528 186.035 123.055V128.294V133.565V135.824C186.035 135.824 185.272 135.824 183.745 135.824H178.506H173.235H170.976ZM125.8 75.5882C125.8 75.5882 125.8 74.8353 125.8 73.3294V68.0588V62.8196V60.5294H128.059H133.329H138.568H140.859C140.859 60.5294 140.859 61.2928 140.859 62.8196V60.5294H143.117H148.388H153.627H155.917C155.917 60.5294 155.917 61.2928 155.917 62.8196V60.5294H158.176H163.447H168.686H170.976C170.976 60.5294 170.976 61.2928 170.976 62.8196V68.0588V73.3294V75.5882C170.976 75.5882 170.213 75.5882 168.686 75.5882H163.447H158.176H155.917C155.917 75.5882 155.917 74.8353 155.917 73.3294V75.5882C155.917 75.5882 155.154 75.5882 153.627 75.5882H148.388H143.117H140.859C140.859 75.5882 140.859 74.8353 140.859 73.3294V75.5882C140.859 75.5882 140.095 75.5882 138.568 75.5882H133.329H128.059H125.8ZM170.976 60.5294C170.976 60.5294 170.976 59.7765 170.976 58.2706V53V47.7608V45.4706H173.235H178.506H183.745H186.035C186.035 45.4706 186.035 46.234 186.035 47.7608V53V58.2706V60.5294C186.035 60.5294 185.272 60.5294 183.745 60.5294H178.506H173.235H170.976ZM218.32 181C218.32 181 218.32 180.247 218.32 178.741V173.471V168.231V165.941H220.579H225.849H231.088H233.379C233.379 165.941 233.379 166.705 233.379 168.231V165.941H235.637H240.908H246.147H248.437C248.437 165.941 248.437 166.705 248.437 168.231V165.941H250.696H255.967H261.206H263.496C263.496 165.941 263.496 166.705 263.496 168.231V173.471V178.741V181C263.496 181 262.733 181 261.206 181H255.967H250.696H248.437C248.437 181 248.437 180.247 248.437 178.741V181C248.437 181 247.674 181 246.147 181H240.908H235.637H233.379C233.379 181 233.379 180.247 233.379 178.741V181C233.379 181 232.615 181 231.088 181H225.849H220.579H218.32ZM203.261 165.941C203.261 165.941 203.261 165.188 203.261 163.682V158.412V153.173V150.882C203.261 150.882 203.261 150.129 203.261 148.624V143.353V138.114V135.824C203.261 135.824 203.261 135.071 203.261 133.565V128.294V123.055V120.765C203.261 120.765 203.261 120.012 203.261 118.506V113.235V107.996V105.706C203.261 105.706 203.261 104.953 203.261 103.447V98.1765V92.9372V90.6471C203.261 90.6471 203.261 89.8941 203.261 88.3882V83.1176V77.8784V75.5882H205.52H210.79H216.03H218.32C218.32 75.5882 218.32 76.3516 218.32 77.8784V83.1176V88.3882V90.6471C218.32 90.6471 217.556 90.6471 216.03 90.6471H218.32C218.32 90.6471 218.32 91.4105 218.32 92.9372V98.1765V103.447V105.706C218.32 105.706 217.556 105.706 216.03 105.706H218.32C218.32 105.706 218.32 106.469 218.32 107.996V113.235V118.506V120.765C218.32 120.765 217.556 120.765 216.03 120.765H218.32C218.32 120.765 218.32 121.528 218.32 123.055V128.294V133.565V135.824C218.32 135.824 217.556 135.824 216.03 135.824H218.32C218.32 135.824 218.32 136.587 218.32 138.114V143.353V148.624V150.882C218.32 150.882 217.556 150.882 216.03 150.882H218.32C218.32 150.882 218.32 151.646 218.32 153.173V158.412V163.682V165.941C218.32 165.941 217.556 165.941 216.03 165.941H210.79H205.52H203.261ZM263.496 165.941C263.496 165.941 263.496 165.188 263.496 163.682V158.412V153.173V150.882C263.496 150.882 263.496 150.129 263.496 148.624V143.353V138.114V135.824C263.496 135.824 263.496 135.071 263.496 133.565V128.294V123.055V120.765C263.496 120.765 263.496 120.012 263.496 118.506V113.235V107.996V105.706C263.496 105.706 263.496 104.953 263.496 103.447V98.1765V92.9372V90.6471C263.496 90.6471 263.496 89.8941 263.496 88.3882V83.1176V77.8784V75.5882H265.755H271.026H276.265H278.555C278.555 75.5882 278.555 76.3516 278.555 77.8784V83.1176V88.3882V90.6471C278.555 90.6471 277.792 90.6471 276.265 90.6471H278.555C278.555 90.6471 278.555 91.4105 278.555 92.9372V98.1765V103.447V105.706C278.555 105.706 277.792 105.706 276.265 105.706H278.555C278.555 105.706 278.555 106.469 278.555 107.996V113.235V118.506V120.765C278.555 120.765 277.792 120.765 276.265 120.765H278.555C278.555 120.765 278.555 121.528 278.555 123.055V128.294V133.565V135.824C278.555 135.824 277.792 135.824 276.265 135.824H278.555C278.555 135.824 278.555 136.587 278.555 138.114V143.353V148.624V150.882C278.555 150.882 277.792 150.882 276.265 150.882H278.555C278.555 150.882 278.555 151.646 278.555 153.173V158.412V163.682V165.941C278.555 165.941 277.792 165.941 276.265 165.941H271.026H265.755H263.496ZM218.32 75.5882C218.32 75.5882 218.32 74.8353 218.32 73.3294V68.0588V62.8196V60.5294H220.579H225.849H231.088H233.379C233.379 60.5294 233.379 61.2928 233.379 62.8196V60.5294H235.637H240.908H246.147H248.437C248.437 60.5294 248.437 61.2928 248.437 62.8196V60.5294H250.696H255.967H261.206H263.496C263.496 60.5294 263.496 61.2928 263.496 62.8196V68.0588V73.3294V75.5882C263.496 75.5882 262.733 75.5882 261.206 75.5882H255.967H250.696H248.437C248.437 75.5882 248.437 74.8353 248.437 73.3294V75.5882C248.437 75.5882 247.674 75.5882 246.147 75.5882H240.908H235.637H233.379C233.379 75.5882 233.379 74.8353 233.379 73.3294V75.5882C233.379 75.5882 232.615 75.5882 231.088 75.5882H225.849H220.579H218.32ZM305.85 178.992C305.85 178.992 305.85 178.438 305.85 177.329V173.471V169.612V167.949H307.512H311.371H315.23H316.893C316.893 167.949 316.893 168.503 316.893 169.612V173.471V177.329V178.992C316.893 178.992 316.339 178.992 315.23 178.992H311.371H307.512H305.85ZM320.908 178.992C320.908 178.992 320.908 178.438 320.908 177.329V173.471V169.612V167.949H322.571H326.43H330.289H331.952C331.952 167.949 331.952 168.503 331.952 169.612V173.471V177.329V178.992C331.952 178.992 331.397 178.992 330.289 178.992H326.43H322.571H320.908ZM335.967 178.992C335.967 178.992 335.967 178.438 335.967 177.329V173.471V169.612V167.949H337.63H341.489H345.348H347.01C347.01 167.949 347.01 168.503 347.01 169.612V173.471V177.329V178.992C347.01 178.992 346.456 178.992 345.348 178.992H341.489H337.63H335.967ZM290.791 163.933C290.791 163.933 290.791 163.379 290.791 162.271V158.412V154.553V152.89H292.454H296.312H300.171H301.834C301.834 152.89 301.834 153.444 301.834 154.553V158.412V162.271V163.933C301.834 163.933 301.28 163.933 300.171 163.933H296.312H292.454H290.791ZM351.026 163.933C351.026 163.933 351.026 163.379 351.026 162.271V158.412V154.553V152.89H352.689H356.548H360.407H362.069C362.069 152.89 362.069 153.444 362.069 154.553V158.412V162.271V163.933C362.069 163.933 361.515 163.933 360.407 163.933H356.548H352.689H351.026ZM290.791 148.875C290.791 148.875 290.791 148.32 290.791 147.212V143.353V139.494V137.831H292.454H296.312H300.171H301.834C301.834 137.831 301.834 138.386 301.834 139.494V143.353V147.212V148.875C301.834 148.875 301.28 148.875 300.171 148.875H296.312H292.454H290.791ZM351.026 148.875C351.026 148.875 351.026 148.32 351.026 147.212V143.353V139.494V137.831H352.689H356.548H360.407H362.069C362.069 137.831 362.069 138.386 362.069 139.494V143.353V147.212V148.875C362.069 148.875 361.515 148.875 360.407 148.875H356.548H352.689H351.026ZM335.967 133.816C335.967 133.816 335.967 133.261 335.967 132.153V128.294V124.435V122.773H337.63H341.489H345.348H347.01C347.01 122.773 347.01 123.327 347.01 124.435V128.294V132.153V133.816C347.01 133.816 346.456 133.816 345.348 133.816H341.489H337.63H335.967ZM320.908 126.286C320.908 126.286 320.908 125.732 320.908 124.624V120.765V116.906V115.243H322.571H326.43H330.289H331.952C331.952 115.243 331.952 115.797 331.952 116.906V120.765V124.624V126.286C331.952 126.286 331.397 126.286 330.289 126.286H326.43H322.571H320.908ZM305.85 118.757C305.85 118.757 305.85 118.203 305.85 117.094V113.235V109.376V107.714H307.512H311.371H315.23H316.893C316.893 107.714 316.893 108.268 316.893 109.376V113.235V117.094V118.757C316.893 118.757 316.339 118.757 315.23 118.757H311.371H307.512H305.85ZM290.791 103.698C290.791 103.698 290.791 103.144 290.791 102.035V98.1765V94.3176V92.6549H292.454H296.312H300.171H301.834C301.834 92.6549 301.834 93.2091 301.834 94.3176V98.1765V102.035V103.698C301.834 103.698 301.28 103.698 300.171 103.698H296.312H292.454H290.791ZM351.026 103.698C351.026 103.698 351.026 103.144 351.026 102.035V98.1765V94.3176V92.6549H352.689H356.548H360.407H362.069C362.069 92.6549 362.069 93.2091 362.069 94.3176V98.1765V102.035V103.698C362.069 103.698 361.515 103.698 360.407 103.698H356.548H352.689H351.026ZM290.791 88.6392C290.791 88.6392 290.791 88.085 290.791 86.9765V83.1176V79.2588V77.5961H292.454H296.312H300.171H301.834C301.834 77.5961 301.834 78.1503 301.834 79.2588V83.1176V86.9765V88.6392C301.834 88.6392 301.28 88.6392 300.171 88.6392H296.312H292.454H290.791ZM351.026 88.6392C351.026 88.6392 351.026 88.085 351.026 86.9765V83.1176V79.2588V77.5961H352.689H356.548H360.407H362.069C362.069 77.5961 362.069 78.1503 362.069 79.2588V83.1176V86.9765V88.6392C362.069 88.6392 361.515 88.6392 360.407 88.6392H356.548H352.689H351.026ZM305.85 73.5804C305.85 73.5804 305.85 73.0261 305.85 71.9176V68.0588V64.2V62.5372H307.512H311.371H315.23H316.893C316.893 62.5372 316.893 63.0915 316.893 64.2V68.0588V71.9176V73.5804C316.893 73.5804 316.339 73.5804 315.23 73.5804H311.371H307.512H305.85ZM320.908 73.5804C320.908 73.5804 320.908 73.0261 320.908 71.9176V68.0588V64.2V62.5372H322.571H326.43H330.289H331.952C331.952 62.5372 331.952 63.0915 331.952 64.2V68.0588V71.9176V73.5804C331.952 73.5804 331.397 73.5804 330.289 73.5804H326.43H322.571H320.908ZM335.967 73.5804C335.967 73.5804 335.967 73.0261 335.967 71.9176V68.0588V64.2V62.5372H337.63H341.489H345.348H347.01C347.01 62.5372 347.01 63.0915 347.01 64.2V68.0588V71.9176V73.5804C347.01 73.5804 346.456 73.5804 345.348 73.5804H341.489H337.63H335.967ZM390.87 178.992C390.87 178.992 390.87 178.438 390.87 177.329V173.471V169.612V167.949H392.532H396.391H400.25H401.913C401.913 167.949 401.913 168.503 401.913 169.612V173.471V177.329V178.992C401.913 178.992 401.359 178.992 400.25 178.992H396.391H392.532H390.87ZM405.928 178.992C405.928 178.992 405.928 178.438 405.928 177.329V173.471V169.612V167.949H407.591H411.45H415.309H416.972C416.972 167.949 416.972 168.503 416.972 169.612V173.471V177.329V178.992C416.972 178.992 416.417 178.992 415.309 178.992H411.45H407.591H405.928ZM420.987 178.992C420.987 178.992 420.987 178.438 420.987 177.329V173.471V169.612V167.949H422.65H426.509H430.368H432.03C432.03 167.949 432.03 168.503 432.03 169.612V173.471V177.329V178.992C432.03 178.992 431.476 178.992 430.368 178.992H426.509H422.65H420.987ZM375.811 163.933C375.811 163.933 375.811 163.379 375.811 162.271V158.412V154.553V152.89H377.474H381.332H385.191H386.854C386.854 152.89 386.854 153.444 386.854 154.553V158.412V162.271V163.933C386.854 163.933 386.3 163.933 385.191 163.933H381.332H377.474H375.811ZM436.046 163.933C436.046 163.933 436.046 163.379 436.046 162.271V158.412V154.553V152.89H437.709H441.568H445.427H447.089C447.089 152.89 447.089 153.444 447.089 154.553V158.412V162.271V163.933C447.089 163.933 446.535 163.933 445.427 163.933H441.568H437.709H436.046ZM375.811 148.875C375.811 148.875 375.811 148.32 375.811 147.212V143.353V139.494V137.831H377.474H381.332H385.191H386.854C386.854 137.831 386.854 138.386 386.854 139.494V143.353V147.212V148.875C386.854 148.875 386.3 148.875 385.191 148.875H381.332H377.474H375.811ZM375.811 133.816C375.811 133.816 375.811 133.261 375.811 132.153V128.294V124.435V122.773H377.474H381.332H385.191H386.854C386.854 122.773 386.854 123.327 386.854 124.435V128.294V132.153V133.816C386.854 133.816 386.3 133.816 385.191 133.816H381.332H377.474H375.811ZM375.811 118.757C375.811 118.757 375.811 118.203 375.811 117.094V113.235V109.376V107.714H377.474H381.332H385.191H386.854C386.854 107.714 386.854 108.268 386.854 109.376V113.235V117.094V118.757C386.854 118.757 386.3 118.757 385.191 118.757H381.332H377.474H375.811ZM390.87 118.757C390.87 118.757 390.87 118.203 390.87 117.094V113.235V109.376V107.714H392.532H396.391H400.25H401.913C401.913 107.714 401.913 108.268 401.913 109.376V113.235V117.094V118.757C401.913 118.757 401.359 118.757 400.25 118.757H396.391H392.532H390.87ZM405.928 118.757C405.928 118.757 405.928 118.203 405.928 117.094V113.235V109.376V107.714H407.591H411.45H415.309H416.972C416.972 107.714 416.972 108.268 416.972 109.376V113.235V117.094V118.757C416.972 118.757 416.417 118.757 415.309 118.757H411.45H407.591H405.928ZM420.987 118.757C420.987 118.757 420.987 118.203 420.987 117.094V113.235V109.376V107.714H422.65H426.509H430.368H432.03C432.03 107.714 432.03 108.268 432.03 109.376V113.235V117.094V118.757C432.03 118.757 431.476 118.757 430.368 118.757H426.509H422.65H420.987ZM436.046 118.757C436.046 118.757 436.046 118.203 436.046 117.094V113.235V109.376V107.714H437.709H441.568H445.427H447.089C447.089 107.714 447.089 108.268 447.089 109.376V113.235V117.094V118.757C447.089 118.757 446.535 118.757 445.427 118.757H441.568H437.709H436.046ZM375.811 103.698C375.811 103.698 375.811 103.144 375.811 102.035V98.1765V94.3176V92.6549H377.474H381.332H385.191H386.854C386.854 92.6549 386.854 93.2091 386.854 94.3176V98.1765V102.035V103.698C386.854 103.698 386.3 103.698 385.191 103.698H381.332H377.474H375.811ZM436.046 103.698C436.046 103.698 436.046 103.144 436.046 102.035V98.1765V94.3176V92.6549H437.709H441.568H445.427H447.089C447.089 92.6549 447.089 93.2091 447.089 94.3176V98.1765V102.035V103.698C447.089 103.698 446.535 103.698 445.427 103.698H441.568H437.709H436.046ZM375.811 88.6392C375.811 88.6392 375.811 88.085 375.811 86.9765V83.1176V79.2588V77.5961H377.474H381.332H385.191H386.854C386.854 77.5961 386.854 78.1503 386.854 79.2588V83.1176V86.9765V88.6392C386.854 88.6392 386.3 88.6392 385.191 88.6392H381.332H377.474H375.811ZM436.046 88.6392C436.046 88.6392 436.046 88.085 436.046 86.9765V83.1176V79.2588V77.5961H437.709H441.568H445.427H447.089C447.089 77.5961 447.089 78.1503 447.089 79.2588V83.1176V86.9765V88.6392C447.089 88.6392 446.535 88.6392 445.427 88.6392H441.568H437.709H436.046ZM390.87 73.5804C390.87 73.5804 390.87 73.0261 390.87 71.9176V68.0588V64.2V62.5372H392.532H396.391H400.25H401.913C401.913 62.5372 401.913 63.0915 401.913 64.2V68.0588V71.9176V73.5804C401.913 73.5804 401.359 73.5804 400.25 73.5804H396.391H392.532H390.87ZM405.928 73.5804C405.928 73.5804 405.928 73.0261 405.928 71.9176V68.0588V64.2V62.5372H407.591H411.45H415.309H416.972C416.972 62.5372 416.972 63.0915 416.972 64.2V68.0588V71.9176V73.5804C416.972 73.5804 416.417 73.5804 415.309 73.5804H411.45H407.591H405.928ZM420.987 73.5804C420.987 73.5804 420.987 73.0261 420.987 71.9176V68.0588V64.2V62.5372H422.65H426.509H430.368H432.03C432.03 62.5372 432.03 63.0915 432.03 64.2V68.0588V71.9176V73.5804C432.03 73.5804 431.476 73.5804 430.368 73.5804H426.509H422.65H420.987ZM468.39 178.992C468.39 178.992 468.39 178.438 468.39 177.329V173.471V169.612V167.949H470.052H473.911H477.77H479.433C479.433 167.949 479.433 168.503 479.433 169.612V173.471V177.329V178.992C479.433 178.992 478.879 178.992 477.77 178.992H473.911H470.052H468.39ZM483.448 178.992C483.448 178.992 483.448 178.438 483.448 177.329V173.471V169.612V167.949H485.111H488.97H492.829H494.492C494.492 167.949 494.492 168.503 494.492 169.612V173.471V177.329V178.992C494.492 178.992 493.937 178.992 492.829 178.992H488.97H485.111H483.448ZM498.507 178.992C498.507 178.992 498.507 178.438 498.507 177.329V173.471V169.612V167.949H500.17H504.029H507.888H509.55C509.55 167.949 509.55 168.503 509.55 169.612V173.471V177.329V178.992C509.55 178.992 508.996 178.992 507.888 178.992H504.029H500.17H498.507ZM453.331 163.933C453.331 163.933 453.331 163.379 453.331 162.271V158.412V154.553V152.89H454.994H458.852H462.711H464.374C464.374 152.89 464.374 153.444 464.374 154.553V158.412V162.271V163.933C464.374 163.933 463.82 163.933 462.711 163.933H458.852H454.994H453.331ZM513.566 163.933C513.566 163.933 513.566 163.379 513.566 162.271V158.412V154.553V152.89H515.229H519.088H522.946H524.609C524.609 152.89 524.609 153.444 524.609 154.553V158.412V162.271V163.933C524.609 163.933 524.055 163.933 522.946 163.933H519.088H515.229H513.566ZM453.331 148.875C453.331 148.875 453.331 148.32 453.331 147.212V143.353V139.494V137.831H454.994H458.852H462.711H464.374C464.374 137.831 464.374 138.386 464.374 139.494V143.353V147.212V148.875C464.374 148.875 463.82 148.875 462.711 148.875H458.852H454.994H453.331ZM453.331 133.816C453.331 133.816 453.331 133.261 453.331 132.153V128.294V124.435V122.773H454.994H458.852H462.711H464.374C464.374 122.773 464.374 123.327 464.374 124.435V128.294V132.153V133.816C464.374 133.816 463.82 133.816 462.711 133.816H458.852H454.994H453.331ZM453.331 118.757C453.331 118.757 453.331 118.203 453.331 117.094V113.235V109.376V107.714H454.994H458.852H462.711H464.374C464.374 107.714 464.374 108.268 464.374 109.376V113.235V117.094V118.757C464.374 118.757 463.82 118.757 462.711 118.757H458.852H454.994H453.331ZM453.331 103.698C453.331 103.698 453.331 103.144 453.331 102.035V98.1765V94.3176V92.6549H454.994H458.852H462.711H464.374C464.374 92.6549 464.374 93.2091 464.374 94.3176V98.1765V102.035V103.698C464.374 103.698 463.82 103.698 462.711 103.698H458.852H454.994H453.331ZM453.331 88.6392C453.331 88.6392 453.331 88.085 453.331 86.9765V83.1176V79.2588V77.5961H454.994H458.852H462.711H464.374C464.374 77.5961 464.374 78.1503 464.374 79.2588V83.1176V86.9765V88.6392C464.374 88.6392 463.82 88.6392 462.711 88.6392H458.852H454.994H453.331ZM513.566 88.6392C513.566 88.6392 513.566 88.085 513.566 86.9765V83.1176V79.2588V77.5961H515.229H519.088H522.946H524.609C524.609 77.5961 524.609 78.1503 524.609 79.2588V83.1176V86.9765V88.6392C524.609 88.6392 524.055 88.6392 522.946 88.6392H519.088H515.229H513.566ZM468.39 73.5804C468.39 73.5804 468.39 73.0261 468.39 71.9176V68.0588V64.2V62.5372H470.052H473.911H477.77H479.433C479.433 62.5372 479.433 63.0915 479.433 64.2V68.0588V71.9176V73.5804C479.433 73.5804 478.879 73.5804 477.77 73.5804H473.911H470.052H468.39ZM483.448 73.5804C483.448 73.5804 483.448 73.0261 483.448 71.9176V68.0588V64.2V62.5372H485.111H488.97H492.829H494.492C494.492 62.5372 494.492 63.0915 494.492 64.2V68.0588V71.9176V73.5804C494.492 73.5804 493.937 73.5804 492.829 73.5804H488.97H485.111H483.448ZM498.507 73.5804C498.507 73.5804 498.507 73.0261 498.507 71.9176V68.0588V64.2V62.5372H500.17H504.029H507.888H509.55C509.55 62.5372 509.55 63.0915 509.55 64.2V68.0588V71.9176V73.5804C509.55 73.5804 508.996 73.5804 507.888 73.5804H504.029H500.17H498.507ZM545.91 178.992C545.91 178.992 545.91 178.438 545.91 177.329V173.471V169.612V167.949H547.572H551.431H555.29H556.953C556.953 167.949 556.953 168.503 556.953 169.612V173.471V177.329V178.992C556.953 178.992 556.399 178.992 555.29 178.992H551.431H547.572H545.91ZM560.969 178.992C560.969 178.992 560.969 178.438 560.969 177.329V173.471V169.612V167.949H562.631H566.49H570.349H572.012C572.012 167.949 572.012 168.503 572.012 169.612V173.471V177.329V178.992C572.012 178.992 571.457 178.992 570.349 178.992H566.49H562.631H560.969ZM591.086 178.992C591.086 178.992 591.086 178.438 591.086 177.329V173.471V169.612V167.949H592.749H596.608H600.467H602.129C602.129 167.949 602.129 168.503 602.129 169.612V173.471V177.329V178.992C602.129 178.992 601.575 178.992 600.467 178.992H596.608H592.749H591.086ZM530.851 163.933C530.851 163.933 530.851 163.379 530.851 162.271V158.412V154.553V152.89H532.514H536.372H540.231H541.894C541.894 152.89 541.894 153.444 541.894 154.553V158.412V162.271V163.933C541.894 163.933 541.34 163.933 540.231 163.933H536.372H532.514H530.851ZM576.027 163.933C576.027 163.933 576.027 163.379 576.027 162.271V158.412V154.553V152.89H577.69H581.549H585.408H587.07C587.07 152.89 587.07 153.444 587.07 154.553V158.412V162.271V163.933C587.07 163.933 586.516 163.933 585.408 163.933H581.549H577.69H576.027ZM591.086 163.933C591.086 163.933 591.086 163.379 591.086 162.271V158.412V154.553V152.89H592.749H596.608H600.467H602.129C602.129 152.89 602.129 153.444 602.129 154.553V158.412V162.271V163.933C602.129 163.933 601.575 163.933 600.467 163.933H596.608H592.749H591.086ZM530.851 148.875C530.851 148.875 530.851 148.32 530.851 147.212V143.353V139.494V137.831H532.514H536.372H540.231H541.894C541.894 137.831 541.894 138.386 541.894 139.494V143.353V147.212V148.875C541.894 148.875 541.34 148.875 540.231 148.875H536.372H532.514H530.851ZM591.086 148.875C591.086 148.875 591.086 148.32 591.086 147.212V143.353V139.494V137.831H592.749H596.608H600.467H602.129C602.129 137.831 602.129 138.386 602.129 139.494V143.353V147.212V148.875C602.129 148.875 601.575 148.875 600.467 148.875H596.608H592.749H591.086ZM530.851 133.816C530.851 133.816 530.851 133.261 530.851 132.153V128.294V124.435V122.773H532.514H536.372H540.231H541.894C541.894 122.773 541.894 123.327 541.894 124.435V128.294V132.153V133.816C541.894 133.816 541.34 133.816 540.231 133.816H536.372H532.514H530.851ZM591.086 133.816C591.086 133.816 591.086 133.261 591.086 132.153V128.294V124.435V122.773H592.749H596.608H600.467H602.129C602.129 122.773 602.129 123.327 602.129 124.435V128.294V132.153V133.816C602.129 133.816 601.575 133.816 600.467 133.816H596.608H592.749H591.086ZM530.851 118.757C530.851 118.757 530.851 118.203 530.851 117.094V113.235V109.376V107.714H532.514H536.372H540.231H541.894C541.894 107.714 541.894 108.268 541.894 109.376V113.235V117.094V118.757C541.894 118.757 541.34 118.757 540.231 118.757H536.372H532.514H530.851ZM591.086 118.757C591.086 118.757 591.086 118.203 591.086 117.094V113.235V109.376V107.714H592.749H596.608H600.467H602.129C602.129 107.714 602.129 108.268 602.129 109.376V113.235V117.094V118.757C602.129 118.757 601.575 118.757 600.467 118.757H596.608H592.749H591.086ZM530.851 103.698C530.851 103.698 530.851 103.144 530.851 102.035V98.1765V94.3176V92.6549H532.514H536.372H540.231H541.894C541.894 92.6549 541.894 93.2091 541.894 94.3176V98.1765V102.035V103.698C541.894 103.698 541.34 103.698 540.231 103.698H536.372H532.514H530.851ZM591.086 103.698C591.086 103.698 591.086 103.144 591.086 102.035V98.1765V94.3176V92.6549H592.749H596.608H600.467H602.129C602.129 92.6549 602.129 93.2091 602.129 94.3176V98.1765V102.035V103.698C602.129 103.698 601.575 103.698 600.467 103.698H596.608H592.749H591.086ZM530.851 88.6392C530.851 88.6392 530.851 88.085 530.851 86.9765V83.1176V79.2588V77.5961H532.514H536.372H540.231H541.894C541.894 77.5961 541.894 78.1503 541.894 79.2588V83.1176V86.9765V88.6392C541.894 88.6392 541.34 88.6392 540.231 88.6392H536.372H532.514H530.851ZM591.086 88.6392C591.086 88.6392 591.086 88.085 591.086 86.9765V83.1176V79.2588V77.5961H592.749H596.608H600.467H602.129C602.129 77.5961 602.129 78.1503 602.129 79.2588V83.1176V86.9765V88.6392C602.129 88.6392 601.575 88.6392 600.467 88.6392H596.608H592.749H591.086ZM530.851 73.5804C530.851 73.5804 530.851 73.0261 530.851 71.9176V68.0588V64.2V62.5372H532.514H536.372H540.231H541.894C541.894 62.5372 541.894 63.0915 541.894 64.2V68.0588V71.9176V73.5804C541.894 73.5804 541.34 73.5804 540.231 73.5804H536.372H532.514H530.851ZM591.086 73.5804C591.086 73.5804 591.086 73.0261 591.086 71.9176V68.0588V64.2V62.5372H592.749H596.608H600.467H602.129C602.129 62.5372 602.129 63.0915 602.129 64.2V68.0588V71.9176V73.5804C602.129 73.5804 601.575 73.5804 600.467 73.5804H596.608H592.749H591.086ZM615.871 178.992C615.871 178.992 615.871 178.438 615.871 177.329V173.471V169.612V167.949H617.534H621.392H625.251H626.914C626.914 167.949 626.914 168.503 626.914 169.612V173.471V177.329V178.992C626.914 178.992 626.36 178.992 625.251 178.992H621.392H617.534H615.871ZM615.871 163.933C615.871 163.933 615.871 163.379 615.871 162.271V158.412V154.553V152.89H617.534H621.392H625.251H626.914C626.914 152.89 626.914 153.444 626.914 154.553V158.412V162.271V163.933C626.914 163.933 626.36 163.933 625.251 163.933H621.392H617.534H615.871ZM615.871 148.875C615.871 148.875 615.871 148.32 615.871 147.212V143.353V139.494V137.831H617.534H621.392H625.251H626.914C626.914 137.831 626.914 138.386 626.914 139.494V143.353V147.212V148.875C626.914 148.875 626.36 148.875 625.251 148.875H621.392H617.534H615.871ZM615.871 133.816C615.871 133.816 615.871 133.261 615.871 132.153V128.294V124.435V122.773H617.534H621.392H625.251H626.914C626.914 122.773 626.914 123.327 626.914 124.435V128.294V132.153V133.816C626.914 133.816 626.36 133.816 625.251 133.816H621.392H617.534H615.871ZM615.871 118.757C615.871 118.757 615.871 118.203 615.871 117.094V113.235V109.376V107.714H617.534H621.392H625.251H626.914C626.914 107.714 626.914 108.268 626.914 109.376V113.235V117.094V118.757C626.914 118.757 626.36 118.757 625.251 118.757H621.392H617.534H615.871ZM615.871 103.698C615.871 103.698 615.871 103.144 615.871 102.035V98.1765V94.3176V92.6549H617.534H621.392H625.251H626.914C626.914 92.6549 626.914 93.2091 626.914 94.3176V98.1765V102.035V103.698C626.914 103.698 626.36 103.698 625.251 103.698H621.392H617.534H615.871ZM661.047 103.698C661.047 103.698 661.047 103.144 661.047 102.035V98.1765V94.3176V92.6549H662.71H666.569H670.428H672.09C672.09 92.6549 672.09 93.2091 672.09 94.3176V98.1765V102.035V103.698C672.09 103.698 671.536 103.698 670.428 103.698H666.569H662.71H661.047ZM615.871 88.6392C615.871 88.6392 615.871 88.085 615.871 86.9765V83.1176V79.2588V77.5961H617.534H621.392H625.251H626.914C626.914 77.5961 626.914 78.1503 626.914 79.2588V83.1176V86.9765V88.6392C626.914 88.6392 626.36 88.6392 625.251 88.6392H621.392H617.534H615.871ZM661.047 88.6392C661.047 88.6392 661.047 88.085 661.047 86.9765V83.1176V79.2588V77.5961H662.71H666.569H670.428H672.09C672.09 77.5961 672.09 78.1503 672.09 79.2588V83.1176V86.9765V88.6392C672.09 88.6392 671.536 88.6392 670.428 88.6392H666.569H662.71H661.047ZM630.93 73.5804C630.93 73.5804 630.93 73.0261 630.93 71.9176V68.0588V64.2V62.5372H632.592H636.451H640.31H641.973C641.973 62.5372 641.973 63.0915 641.973 64.2V68.0588V71.9176V73.5804C641.973 73.5804 641.419 73.5804 640.31 73.5804H636.451H632.592H630.93ZM645.989 73.5804C645.989 73.5804 645.989 73.0261 645.989 71.9176V68.0588V64.2V62.5372H647.651H651.51H655.369H657.032C657.032 62.5372 657.032 63.0915 657.032 64.2V68.0588V71.9176V73.5804C657.032 73.5804 656.477 73.5804 655.369 73.5804H651.51H647.651H645.989ZM693.2 178.992C693.2 178.992 693.2 178.438 693.2 177.329V173.471V169.612V167.949H694.862H698.721H702.58H704.243C704.243 167.949 704.243 168.503 704.243 169.612V173.471V177.329V178.992C704.243 178.992 703.688 178.992 702.58 178.992H698.721H694.862H693.2ZM708.258 178.992C708.258 178.992 708.258 178.438 708.258 177.329V173.471V169.612V167.949H709.921H713.78H717.639H719.302C719.302 167.949 719.302 168.503 719.302 169.612V173.471V177.329V178.992C719.302 178.992 718.747 178.992 717.639 178.992H713.78H709.921H708.258ZM723.317 178.992C723.317 178.992 723.317 178.438 723.317 177.329V173.471V169.612V167.949H724.98H728.839H732.698H734.36C734.36 167.949 734.36 168.503 734.36 169.612V173.471V177.329V178.992C734.36 178.992 733.806 178.992 732.698 178.992H728.839H724.98H723.317ZM678.141 163.933C678.141 163.933 678.141 163.379 678.141 162.271V158.412V154.553V152.89H679.804H683.662H687.521H689.184C689.184 152.89 689.184 153.444 689.184 154.553V158.412V162.271V163.933C689.184 163.933 688.63 163.933 687.521 163.933H683.662H679.804H678.141ZM738.376 163.933C738.376 163.933 738.376 163.379 738.376 162.271V158.412V154.553V152.89H740.039H743.898H747.756H749.419C749.419 152.89 749.419 153.444 749.419 154.553V158.412V162.271V163.933C749.419 163.933 748.865 163.933 747.756 163.933H743.898H740.039H738.376ZM678.141 148.875C678.141 148.875 678.141 148.32 678.141 147.212V143.353V139.494V137.831H679.804H683.662H687.521H689.184C689.184 137.831 689.184 138.386 689.184 139.494V143.353V147.212V148.875C689.184 148.875 688.63 148.875 687.521 148.875H683.662H679.804H678.141ZM678.141 133.816C678.141 133.816 678.141 133.261 678.141 132.153V128.294V124.435V122.773H679.804H683.662H687.521H689.184C689.184 122.773 689.184 123.327 689.184 124.435V128.294V132.153V133.816C689.184 133.816 688.63 133.816 687.521 133.816H683.662H679.804H678.141ZM678.141 118.757C678.141 118.757 678.141 118.203 678.141 117.094V113.235V109.376V107.714H679.804H683.662H687.521H689.184C689.184 107.714 689.184 108.268 689.184 109.376V113.235V117.094V118.757C689.184 118.757 688.63 118.757 687.521 118.757H683.662H679.804H678.141ZM693.2 118.757C693.2 118.757 693.2 118.203 693.2 117.094V113.235V109.376V107.714H694.862H698.721H702.58H704.243C704.243 107.714 704.243 108.268 704.243 109.376V113.235V117.094V118.757C704.243 118.757 703.688 118.757 702.58 118.757H698.721H694.862H693.2ZM708.258 118.757C708.258 118.757 708.258 118.203 708.258 117.094V113.235V109.376V107.714H709.921H713.78H717.639H719.302C719.302 107.714 719.302 108.268 719.302 109.376V113.235V117.094V118.757C719.302 118.757 718.747 118.757 717.639 118.757H713.78H709.921H708.258ZM723.317 118.757C723.317 118.757 723.317 118.203 723.317 117.094V113.235V109.376V107.714H724.98H728.839H732.698H734.36C734.36 107.714 734.36 108.268 734.36 109.376V113.235V117.094V118.757C734.36 118.757 733.806 118.757 732.698 118.757H728.839H724.98H723.317ZM738.376 118.757C738.376 118.757 738.376 118.203 738.376 117.094V113.235V109.376V107.714H740.039H743.898H747.756H749.419C749.419 107.714 749.419 108.268 749.419 109.376V113.235V117.094V118.757C749.419 118.757 748.865 118.757 747.756 118.757H743.898H740.039H738.376ZM678.141 103.698C678.141 103.698 678.141 103.144 678.141 102.035V98.1765V94.3176V92.6549H679.804H683.662H687.521H689.184C689.184 92.6549 689.184 93.2091 689.184 94.3176V98.1765V102.035V103.698C689.184 103.698 688.63 103.698 687.521 103.698H683.662H679.804H678.141ZM738.376 103.698C738.376 103.698 738.376 103.144 738.376 102.035V98.1765V94.3176V92.6549H740.039H743.898H747.756H749.419C749.419 92.6549 749.419 93.2091 749.419 94.3176V98.1765V102.035V103.698C749.419 103.698 748.865 103.698 747.756 103.698H743.898H740.039H738.376ZM678.141 88.6392C678.141 88.6392 678.141 88.085 678.141 86.9765V83.1176V79.2588V77.5961H679.804H683.662H687.521H689.184C689.184 77.5961 689.184 78.1503 689.184 79.2588V83.1176V86.9765V88.6392C689.184 88.6392 688.63 88.6392 687.521 88.6392H683.662H679.804H678.141ZM738.376 88.6392C738.376 88.6392 738.376 88.085 738.376 86.9765V83.1176V79.2588V77.5961H740.039H743.898H747.756H749.419C749.419 77.5961 749.419 78.1503 749.419 79.2588V83.1176V86.9765V88.6392C749.419 88.6392 748.865 88.6392 747.756 88.6392H743.898H740.039H738.376ZM693.2 73.5804C693.2 73.5804 693.2 73.0261 693.2 71.9176V68.0588V64.2V62.5372H694.862H698.721H702.58H704.243C704.243 62.5372 704.243 63.0915 704.243 64.2V68.0588V71.9176V73.5804C704.243 73.5804 703.688 73.5804 702.58 73.5804H698.721H694.862H693.2ZM708.258 73.5804C708.258 73.5804 708.258 73.0261 708.258 71.9176V68.0588V64.2V62.5372H709.921H713.78H717.639H719.302C719.302 62.5372 719.302 63.0915 719.302 64.2V68.0588V71.9176V73.5804C719.302 73.5804 718.747 73.5804 717.639 73.5804H713.78H709.921H708.258ZM723.317 73.5804C723.317 73.5804 723.317 73.0261 723.317 71.9176V68.0588V64.2V62.5372H724.98H728.839H732.698H734.36C734.36 62.5372 734.36 63.0915 734.36 64.2V68.0588V71.9176V73.5804C734.36 73.5804 733.806 73.5804 732.698 73.5804H728.839H724.98H723.317ZM759.269 78.7059C759.269 78.7059 759.269 78.3529 759.269 77.6471V75.1765V72.7206V71.6471H760.327H762.798H765.254H766.327C766.327 71.6471 766.327 72.0049 766.327 72.7206V71.6471H767.386H769.857H772.313H773.386C773.386 71.6471 773.386 72.0049 773.386 72.7206V71.6471H774.445H776.916H779.372H780.445C780.445 71.6471 780.445 72.0049 780.445 72.7206V75.1765V77.6471V78.7059C780.445 78.7059 780.087 78.7059 779.372 78.7059H776.916H774.445H773.386C773.386 78.7059 773.386 78.3529 773.386 77.6471V78.7059C773.386 78.7059 773.028 78.7059 772.313 78.7059H769.857H767.386H766.327C766.327 78.7059 766.327 78.3529 766.327 77.6471V78.7059C766.327 78.7059 765.97 78.7059 765.254 78.7059H762.798H760.327H759.269ZM752.21 71.6471C752.21 71.6471 752.21 71.2941 752.21 70.5882V68.1176V65.6618V64.5882H753.269H755.739H758.195H759.269C759.269 64.5882 759.269 64.9461 759.269 65.6618V68.1176V70.5882V71.6471C759.269 71.6471 758.911 71.6471 758.195 71.6471H755.739H753.269H752.21ZM780.445 71.6471C780.445 71.6471 780.445 71.2941 780.445 70.5882V68.1176V65.6618V64.5882H781.504H783.975H786.43H787.504C787.504 64.5882 787.504 64.9461 787.504 65.6618V68.1176V70.5882V71.6471C787.504 71.6471 787.146 71.6471 786.43 71.6471H783.975H781.504H780.445ZM745.151 64.5882C745.151 64.5882 745.151 64.2353 745.151 63.5294V61.0588V58.6029V57.5294C745.151 57.5294 745.151 57.1765 745.151 56.4706V54V51.5441V50.4706C745.151 50.4706 745.151 50.1176 745.151 49.4118V46.9412V44.4853V43.4118C745.151 43.4118 745.151 43.0588 745.151 42.3529V39.8823V37.4265V36.3529H746.21H748.68H751.136H752.21C752.21 36.3529 752.21 36.7108 752.21 37.4265V39.8823V42.3529V43.4118C752.21 43.4118 751.852 43.4118 751.136 43.4118H752.21C752.21 43.4118 752.21 43.7696 752.21 44.4853V46.9412V49.4118V50.4706C752.21 50.4706 751.852 50.4706 751.136 50.4706H752.21C752.21 50.4706 752.21 50.8284 752.21 51.5441V54V56.4706V57.5294C752.21 57.5294 751.852 57.5294 751.136 57.5294H752.21C752.21 57.5294 752.21 57.8872 752.21 58.6029V61.0588V63.5294V64.5882C752.21 64.5882 751.852 64.5882 751.136 64.5882H748.68H746.21H745.151ZM759.269 64.5882C759.269 64.5882 759.269 64.2353 759.269 63.5294V61.0588V58.6029V57.5294C759.269 57.5294 759.269 57.1765 759.269 56.4706V54V51.5441V50.4706C759.269 50.4706 759.269 50.1176 759.269 49.4118V46.9412V44.4853V43.4118C759.269 43.4118 759.269 43.0588 759.269 42.3529V39.8823V37.4265V36.3529H760.327H762.798H765.254H766.327C766.327 36.3529 766.327 36.7108 766.327 37.4265V36.3529H767.386H769.857H772.313H773.386C773.386 36.3529 773.386 36.7108 773.386 37.4265V39.8823V42.3529V43.4118C773.386 43.4118 773.028 43.4118 772.313 43.4118H769.857H767.386H766.327C766.327 43.4118 766.327 43.0588 766.327 42.3529V43.4118C766.327 43.4118 765.97 43.4118 765.254 43.4118H766.327C766.327 43.4118 766.327 43.7696 766.327 44.4853V46.9412V49.4118V50.4706C766.327 50.4706 765.97 50.4706 765.254 50.4706H766.327C766.327 50.4706 766.327 50.8284 766.327 51.5441V50.4706H767.386H769.857H772.313H773.386C773.386 50.4706 773.386 50.8284 773.386 51.5441V54V56.4706V57.5294C773.386 57.5294 773.028 57.5294 772.313 57.5294H769.857H767.386H766.327C766.327 57.5294 766.327 57.1765 766.327 56.4706V57.5294C766.327 57.5294 765.97 57.5294 765.254 57.5294H766.327C766.327 57.5294 766.327 57.8872 766.327 58.6029V61.0588V63.5294V64.5882C766.327 64.5882 765.97 64.5882 765.254 64.5882H762.798H760.327H759.269ZM769.857 64.5882C769.857 64.5882 769.857 64.2353 769.857 63.5294V61.0588V58.6029V57.5294H770.916H773.386H775.842H776.916C776.916 57.5294 776.916 57.8872 776.916 58.6029V61.0588V63.5294V64.5882C776.916 64.5882 776.558 64.5882 775.842 64.5882H773.386H770.916H769.857ZM787.504 64.5882C787.504 64.5882 787.504 64.2353 787.504 63.5294V61.0588V58.6029V57.5294C787.504 57.5294 787.504 57.1765 787.504 56.4706V54V51.5441V50.4706C787.504 50.4706 787.504 50.1176 787.504 49.4118V46.9412V44.4853V43.4118C787.504 43.4118 787.504 43.0588 787.504 42.3529V39.8823V37.4265V36.3529H788.563H791.033H793.489H794.563C794.563 36.3529 794.563 36.7108 794.563 37.4265V39.8823V42.3529V43.4118C794.563 43.4118 794.205 43.4118 793.489 43.4118H794.563C794.563 43.4118 794.563 43.7696 794.563 44.4853V46.9412V49.4118V50.4706C794.563 50.4706 794.205 50.4706 793.489 50.4706H794.563C794.563 50.4706 794.563 50.8284 794.563 51.5441V54V56.4706V57.5294C794.563 57.5294 794.205 57.5294 793.489 57.5294H794.563C794.563 57.5294 794.563 57.8872 794.563 58.6029V61.0588V63.5294V64.5882C794.563 64.5882 794.205 64.5882 793.489 64.5882H791.033H788.563H787.504ZM773.386 54C773.386 54 773.386 53.6471 773.386 52.9412V50.4706V48.0147V46.9412C773.386 46.9412 773.386 46.5882 773.386 45.8823V43.4118V40.9559V39.8823H774.445H776.916H779.372H780.445C780.445 39.8823 780.445 40.2402 780.445 40.9559V43.4118V45.8823V46.9412C780.445 46.9412 780.087 46.9412 779.372 46.9412H780.445C780.445 46.9412 780.445 47.299 780.445 48.0147V50.4706V52.9412V54C780.445 54 780.087 54 779.372 54H776.916H774.445H773.386ZM752.21 36.3529C752.21 36.3529 752.21 36 752.21 35.2941V32.8235V30.3676V29.2941H753.269H755.739H758.195H759.269C759.269 29.2941 759.269 29.652 759.269 30.3676V32.8235V35.2941V36.3529C759.269 36.3529 758.911 36.3529 758.195 36.3529H755.739H753.269H752.21ZM780.445 36.3529C780.445 36.3529 780.445 36 780.445 35.2941V32.8235V30.3676V29.2941H781.504H783.975H786.43H787.504C787.504 29.2941 787.504 29.652 787.504 30.3676V32.8235V35.2941V36.3529C787.504 36.3529 787.146 36.3529 786.43 36.3529H783.975H781.504H780.445ZM759.269 29.2941C759.269 29.2941 759.269 28.9412 759.269 28.2353V25.7647V23.3088V22.2353H760.327H762.798H765.254H766.327C766.327 22.2353 766.327 22.5931 766.327 23.3088V22.2353H767.386H769.857H772.313H773.386C773.386 22.2353 773.386 22.5931 773.386 23.3088V22.2353H774.445H776.916H779.372H780.445C780.445 22.2353 780.445 22.5931 780.445 23.3088V25.7647V28.2353V29.2941C780.445 29.2941 780.087 29.2941 779.372 29.2941H776.916H774.445H773.386C773.386 29.2941 773.386 28.9412 773.386 28.2353V29.2941C773.386 29.2941 773.028 29.2941 772.313 29.2941H769.857H767.386H766.327C766.327 29.2941 766.327 28.9412 766.327 28.2353V29.2941C766.327 29.2941 765.97 29.2941 765.254 29.2941H762.798H760.327H759.269Z" fill="white"/>
</svg>
